<svg width="84" height="17" viewBox="0 0 84 17" fill="none" xmlns="http://www.w3.org/2000/svg">
<g clip-path="url(#clip0_0_1001)">
<path d="M55.2925 0.00708008H69.7803V2.68114H64.0331V16.749H61.1593V2.68114H55.2925V0.00708008Z" fill="white"/>
<path d="M31.4657 0.00708008V2.68114H19.8528V6.98287H29.1919V9.65693H19.8528V14.0749H31.4657V16.749H16.9792V2.68114H16.978V0.00708008H31.4657Z" fill="white"/>
<path d="M38.6998 0.0141602H34.9392L48.409 16.7561H52.1806L45.4449 8.39088L52.1698 0.0269332L48.409 0.0327449L43.562 6.05253L38.6998 0.0141602Z" fill="white"/>
<path d="M42.5588 11.9729L40.6756 9.63135L34.9284 16.7688H38.6998L42.5588 11.9729Z" fill="white"/>
<path fill-rule="evenodd" clip-rule="evenodd" d="M17.0799 16.7489L3.59198 0H0V16.7419H2.87359V3.57857L13.4699 16.7489H17.0799Z" fill="white"/>
<path d="M70.4262 16.6467C70.2158 16.6467 70.0367 16.5738 69.8869 16.428C69.737 16.2822 69.6629 16.1057 69.6648 15.8966C69.6629 15.6932 69.737 15.5186 69.8869 15.3728C70.0367 15.227 70.2158 15.1541 70.4262 15.1541C70.6287 15.1541 70.8058 15.227 70.9557 15.3728C71.1077 15.5186 71.1835 15.6932 71.1856 15.8966C71.1835 16.0347 71.1484 16.1613 71.0783 16.2745C71.0063 16.3897 70.9149 16.4798 70.7999 16.5451C70.6869 16.6122 70.5624 16.6467 70.4262 16.6467Z" fill="white"/>
<path d="M75.3309 9.59399H76.6043V14.4999C76.6024 14.9508 76.5048 15.3365 76.3142 15.6607C76.1215 15.985 75.8546 16.2324 75.512 16.407C75.1713 16.5797 74.7721 16.668 74.3184 16.668C73.9036 16.668 73.5318 16.5932 73.2008 16.4473C72.8698 16.3015 72.607 16.0828 72.4142 15.795C72.2194 15.5072 72.124 15.1484 72.124 14.7187H73.3995C73.4014 14.9067 73.4442 15.0698 73.5259 15.206C73.6076 15.3422 73.7206 15.4458 73.8647 15.5187C74.0106 15.5916 74.1782 15.6281 74.367 15.6281C74.5715 15.6281 74.7467 15.5859 74.8888 15.4995C75.0309 15.4151 75.14 15.2885 75.216 15.1196C75.2899 14.9527 75.329 14.7455 75.3309 14.4999V9.59399Z" fill="white"/>
<path d="M81.8437 11.5124C81.8127 11.215 81.6763 10.9829 81.4388 10.8179C81.1992 10.6509 80.8897 10.5684 80.5099 10.5684C80.2433 10.5684 80.0136 10.6087 79.8228 10.6874C79.6319 10.768 79.4839 10.8754 79.3826 11.0116C79.2815 11.1479 79.2308 11.3033 79.2268 11.4779C79.2268 11.6237 79.2619 11.7503 79.3301 11.8558C79.3982 11.9633 79.4896 12.0535 79.6085 12.1264C79.7252 12.2012 79.8557 12.2626 79.998 12.3125C80.142 12.3623 80.2861 12.4046 80.4301 12.4391L81.0941 12.6022C81.3609 12.6636 81.6199 12.7461 81.8671 12.8516C82.1143 12.9552 82.3383 13.0876 82.5348 13.2468C82.7316 13.4061 82.8874 13.5979 83.0022 13.8224C83.1171 14.0469 83.1755 14.3098 83.1755 14.6129C83.1755 15.0216 83.0704 15.3804 82.858 15.6912C82.6459 16.0001 82.3402 16.2418 81.9391 16.4164C81.5399 16.5891 81.0571 16.6773 80.4886 16.6773C79.9395 16.6773 79.4605 16.5929 79.0575 16.4241C78.6526 16.2572 78.337 16.0116 78.1092 15.6892C77.8814 15.3669 77.7588 14.9736 77.7413 14.5112H79.003C79.0206 14.7529 79.0985 14.9544 79.2308 15.1175C79.3651 15.2787 79.5403 15.3976 79.7546 15.4782C79.9708 15.5569 80.2121 15.5972 80.4789 15.5972C80.7573 15.5972 81.0026 15.5549 81.2148 15.4724C81.4251 15.3899 81.5906 15.2748 81.7094 15.1252C81.8302 14.9774 81.8905 14.8029 81.8924 14.6033C81.8905 14.421 81.8359 14.2695 81.7307 14.1505C81.6237 14.0316 81.4757 13.9318 81.2868 13.8512C81.0962 13.7706 80.8741 13.6977 80.621 13.6344L79.815 13.431C79.2327 13.2833 78.7713 13.0588 78.4343 12.7576C78.0957 12.4564 77.9281 12.0573 77.9281 11.5565C77.9281 11.146 78.041 10.7853 78.269 10.4764C78.4947 10.1675 78.8044 9.92762 79.1958 9.75686C79.5891 9.5842 80.033 9.49976 80.5274 9.49976C81.0299 9.49976 81.4698 9.5842 81.8496 9.75686C82.2292 9.92762 82.5272 10.1655 82.7432 10.4687C82.9594 10.7718 83.0723 11.1191 83.0782 11.5124H81.8437Z" fill="white"/>
</g>
<defs>
<clipPath id="clip0_0_1001">
<rect width="83.1755" height="16.8884" fill="white"/>
</clipPath>
</defs>
</svg>
