<svg width="42" height="42" viewBox="0 0 42 42" fill="none" xmlns="http://www.w3.org/2000/svg">
<g clip-path="url(#clip0_0_847)">
<path fill-rule="evenodd" clip-rule="evenodd" d="M6.56768 39.2972L1.77789 33.3302C0.625476 31.8946 0 30.1292 0 28.3122V6.70554C0 3.98384 2.17751 1.72544 4.98664 1.53365L27.2012 0.0169662C28.8151 -0.09322 30.4192 0.335752 31.7449 1.23207L39.5499 6.50908C40.947 7.45367 41.7792 8.99782 41.7792 10.6457V35.2103C41.7792 37.8739 39.6381 40.0792 36.8877 40.2485L12.232 41.7662C10.0372 41.9013 7.91575 40.9766 6.56768 39.2972Z" fill="white"/>
<path d="M14.272 17.5175V17.2346C14.272 16.5176 14.8463 15.9229 15.5864 15.8735L20.9778 15.5135L28.4336 26.4928V16.8566L26.5145 16.6008V16.4664C26.5145 15.741 27.102 15.1423 27.8516 15.1039L32.7572 14.8526V15.5586C32.7572 15.89 32.5107 16.1735 32.173 16.2306L30.9925 16.4303V32.0358L29.5109 32.5453C28.2732 32.9709 26.8952 32.5153 26.1867 31.4461L18.9484 20.5235V30.9485L21.1763 31.3749L21.1453 31.5815C21.0481 32.2288 20.4892 32.7184 19.8131 32.7485L14.272 32.9951C14.1987 32.299 14.7204 31.6763 15.4401 31.6007L16.169 31.5241V17.6241L14.272 17.5175Z" fill="black"/>
<path fill-rule="evenodd" clip-rule="evenodd" d="M27.4001 2.73894L5.18552 4.25562C3.85488 4.34647 2.82343 5.41624 2.82343 6.70546V28.3121C2.82343 29.5235 3.24041 30.7004 4.00869 31.6575L8.79848 37.6244C9.5729 38.5892 10.7916 39.1204 12.0525 39.0428L36.7081 37.5251C37.9718 37.4473 38.9556 36.4341 38.9556 35.2103V10.6456C38.9556 9.88849 38.5732 9.17901 37.9313 8.74501L30.1263 3.468C29.3309 2.93021 28.3684 2.67283 27.4001 2.73894ZM6.28709 7.04249C5.97813 6.81375 6.12517 6.33719 6.51331 6.30935L27.5495 4.8005C28.2198 4.75243 28.8858 4.93699 29.4278 5.32103L33.6486 8.31137C33.8088 8.4249 33.7337 8.66998 33.5353 8.68077L11.258 9.89235C10.5838 9.92901 9.91834 9.73095 9.3823 9.33408L6.28709 7.04249ZM10.2131 13.6906C10.2131 12.9668 10.7978 12.369 11.5454 12.3283L35.0988 11.0456C35.8275 11.0059 36.4409 11.5663 36.4409 12.2716V33.542C36.4409 34.2644 35.8583 34.8616 35.1121 34.9041L11.7078 36.2357C10.8969 36.2819 10.2131 35.6588 10.2131 34.8737V13.6906Z" fill="black"/>
</g>
<defs>
<clipPath id="clip0_0_847">
<rect width="41.7792" height="41.7792" fill="white"/>
</clipPath>
</defs>
</svg>
