<svg width="44" height="44" viewBox="0 0 44 44" fill="none" xmlns="http://www.w3.org/2000/svg">
<path d="M40.5628 17.8437C41.1077 16.3454 41.2439 14.8471 41.1077 13.3488C40.9715 11.8504 40.4266 10.3521 39.7455 8.98998C38.5196 6.9468 36.7489 5.31226 34.7057 4.35878C32.5263 3.40529 30.2107 3.13287 27.8951 3.67772C26.8054 2.58802 25.5795 1.63454 24.2174 0.953482C22.8553 0.272424 21.2207 0 19.7224 0C17.4068 0 15.0912 0.681059 13.1842 2.04318C11.2773 3.40529 9.91516 5.31226 9.23411 7.49165C7.59956 7.90028 6.23745 8.58134 4.87533 9.39861C3.64942 10.3521 2.69594 11.578 1.87867 12.8039C0.652763 14.8471 0.244128 17.1627 0.516551 19.4783C0.788975 21.7939 1.74246 23.9733 3.24079 25.744C2.69594 27.2424 2.55973 28.7407 2.69594 30.239C2.83215 31.7373 3.377 33.2357 4.05806 34.5978C5.28396 36.641 7.05472 38.2755 9.09789 39.229C11.2773 40.1825 13.5929 40.4549 15.9085 39.91C16.9982 40.9997 18.2241 41.9532 19.5862 42.6343C20.9483 43.3153 22.5829 43.5878 24.0812 43.5878C26.3968 43.5878 28.7124 42.9067 30.6194 41.5446C32.5263 40.1825 33.8884 38.2755 34.5695 36.0961C36.0678 35.8237 37.5662 35.1426 38.7921 34.1892C40.018 33.2357 41.1077 32.146 41.7887 30.7839C43.0146 28.7407 43.4233 26.4251 43.1508 24.1095C42.8784 21.7939 42.0611 19.6145 40.5628 17.8437ZM24.2174 40.7273C22.038 40.7273 20.4035 40.0463 18.9051 38.8204C18.9051 38.8204 19.0414 38.6841 19.1776 38.6841L27.8951 33.6443C28.1675 33.5081 28.3038 33.3719 28.44 33.0995C28.5762 32.827 28.5762 32.6908 28.5762 32.4184V20.1593L32.2539 22.3387V32.4184C32.3901 37.1858 28.5762 40.7273 24.2174 40.7273ZM6.64608 33.2357C5.6926 31.6011 5.28396 29.6942 5.6926 27.7872C5.6926 27.7872 5.82881 27.9234 5.96502 27.9234L14.6826 32.9632C14.955 33.0995 15.0912 33.0995 15.3636 33.0995C15.6361 33.0995 15.9085 33.0995 16.0447 32.9632L26.6692 26.8337V31.0563L17.8154 36.2323C15.9085 37.322 13.7291 37.5945 11.6859 37.0496C9.50653 36.5048 7.73578 35.1426 6.64608 33.2357ZM4.33048 14.3022C5.28396 12.6677 6.78229 11.4418 8.55305 10.7607V11.0332V21.1128C8.55305 21.3852 8.55305 21.6577 8.68926 21.7939C8.82547 22.0663 8.96168 22.2025 9.23411 22.3387L19.8586 28.4683L16.1809 30.6476L7.46335 25.6078C5.55639 24.5181 4.19427 22.7474 3.64942 20.7042C3.10457 18.661 3.24079 16.2092 4.33048 14.3022ZM34.4333 21.249L23.8088 15.1195L27.4865 12.9401L36.204 17.98C37.5662 18.7972 38.6558 19.8869 39.3369 21.249C40.018 22.6112 40.4266 24.1095 40.2904 25.744C40.1542 27.2424 39.6093 28.7407 38.6558 29.9666C37.7024 31.1925 36.4765 32.146 34.9781 32.6908V22.3387C34.9781 22.0663 34.9781 21.7939 34.8419 21.6577C34.8419 21.6577 34.7057 21.3853 34.4333 21.249ZM38.111 15.8006C38.111 15.8006 37.9748 15.6644 37.8386 15.6644L29.121 10.6245C28.8486 10.4883 28.7124 10.4883 28.44 10.4883C28.1675 10.4883 27.8951 10.4883 27.7589 10.6245L17.1344 16.754V12.5315L25.9882 7.35544C27.3503 6.53817 28.8486 6.26574 30.4831 6.26574C31.9815 6.26574 33.4798 6.81059 34.8419 7.76407C36.0678 8.71755 37.1575 9.94346 37.7024 11.3056C38.2472 12.6677 38.3834 14.3022 38.111 15.8006ZM15.2274 23.4284L11.5497 21.249V11.0332C11.5497 9.53483 11.9583 7.90028 12.7756 6.67438C13.5929 5.31226 14.8188 4.35878 16.1809 3.67772C17.543 2.99666 19.1776 2.72424 20.6759 2.99666C22.1742 3.13287 23.6726 3.81393 24.8985 4.76741C24.8985 4.76741 24.7622 4.90362 24.626 4.90362L15.9085 9.94346C15.6361 10.0797 15.4998 10.2159 15.3636 10.4883C15.2274 10.7607 15.2274 10.8969 15.2274 11.1694V23.4284ZM17.1344 19.0696L21.9018 16.3454L26.6692 19.0696V24.5181L21.9018 27.2424L17.1344 24.5181V19.0696Z" fill="white"/>
</svg>
