<svg width="43" height="43" viewBox="0 0 43 43" fill="none" xmlns="http://www.w3.org/2000/svg">
<path d="M21.2428 0C10.379 0 11.0573 4.71117 11.0573 4.71117L11.0694 9.59209H21.4365V11.0575H6.95173C6.95173 11.0575 0 10.2691 0 21.2305C0 32.1923 6.06764 31.8036 6.06764 31.8036H9.68878V26.7169C9.68878 26.7169 9.49357 20.6492 15.6596 20.6492H25.9419C25.9419 20.6492 31.7188 20.7426 31.7188 15.066V5.68022C31.7188 5.68022 32.5962 0 21.2428 0ZM15.5264 3.28232C15.7713 3.2821 16.014 3.33019 16.2403 3.42384C16.4667 3.51749 16.6724 3.65486 16.8456 3.82808C17.0189 4.00131 17.1562 4.207 17.2499 4.43337C17.3435 4.65975 17.3916 4.90237 17.3914 5.14735C17.3916 5.39233 17.3435 5.63495 17.2499 5.86133C17.1562 6.08771 17.0189 6.29339 16.8456 6.46662C16.6724 6.63985 16.4667 6.77722 16.2403 6.87087C16.014 6.96451 15.7713 7.0126 15.5264 7.01238C15.2814 7.0126 15.0388 6.96451 14.8124 6.87087C14.586 6.77722 14.3803 6.63985 14.2071 6.46662C14.0339 6.29339 13.8965 6.08771 13.8028 5.86133C13.7092 5.63495 13.6611 5.39233 13.6613 5.14735C13.6611 4.90237 13.7092 4.65975 13.8028 4.43337C13.8965 4.207 14.0339 4.00131 14.2071 3.82808C14.3803 3.65486 14.586 3.51749 14.8124 3.42384C15.0388 3.33019 15.2814 3.2821 15.5264 3.28232Z" fill="url(#paint0_linear_0_995)"/>
<path d="M21.5513 42.5714C32.4151 42.5714 31.7368 37.8603 31.7368 37.8603L31.7247 32.9795H21.3574V31.5141H35.8422C35.8422 31.5141 42.7939 32.3025 42.7939 21.3407C42.7939 10.3791 36.7263 10.7678 36.7263 10.7678H33.1051V15.8544C33.1051 15.8544 33.3003 21.922 27.1343 21.922H16.852C16.852 21.922 11.0751 21.8287 11.0751 27.5054V36.8914C11.0751 36.8914 10.1979 42.5714 21.5511 42.5714H21.5513ZM27.2677 39.2894C27.0227 39.2897 26.7801 39.2416 26.5537 39.1479C26.3274 39.0543 26.1217 38.9169 25.9484 38.7437C25.7752 38.5704 25.6378 38.3648 25.5442 38.1384C25.4505 37.912 25.4025 37.6694 25.4027 37.4244C25.4024 37.1794 25.4505 36.9368 25.5441 36.7104C25.6378 36.484 25.7752 36.2783 25.9484 36.105C26.1216 35.9318 26.3273 35.7944 26.5537 35.7007C26.7801 35.6071 27.0227 35.559 27.2677 35.5592C27.5127 35.559 27.7553 35.6071 27.9817 35.7007C28.2081 35.7944 28.4138 35.9317 28.587 36.105C28.7602 36.2782 28.8976 36.4839 28.9912 36.7103C29.0849 36.9366 29.133 37.1793 29.1327 37.4242C29.133 37.6692 29.0849 37.9118 28.9912 38.1382C28.8976 38.3646 28.7602 38.5703 28.587 38.7435C28.4138 38.9167 28.2081 39.0541 27.9817 39.1478C27.7553 39.2414 27.5127 39.2895 27.2677 39.2893V39.2894Z" fill="url(#paint1_linear_0_995)"/>
<defs>
<linearGradient id="paint0_linear_0_995" x1="4.11248" y1="3.82903" x2="25.3198" y2="24.8248" gradientUnits="userSpaceOnUse">
<stop stop-color="#387EB8"/>
<stop offset="1" stop-color="#366994"/>
</linearGradient>
<linearGradient id="paint1_linear_0_995" x1="17.1296" y1="17.3113" x2="39.9038" y2="38.8406" gradientUnits="userSpaceOnUse">
<stop stop-color="#FFE052"/>
<stop offset="1" stop-color="#FFC331"/>
</linearGradient>
</defs>
</svg>
