<svg width="43" height="43" viewBox="0 0 43 43" fill="none" xmlns="http://www.w3.org/2000/svg">
<path d="M21.4732 25.1054C23.5515 25.1054 25.2363 23.4206 25.2363 21.3423C25.2363 19.2639 23.5515 17.5791 21.4732 17.5791C19.3948 17.5791 17.71 19.2639 17.71 21.3423C17.71 23.4206 19.3948 25.1054 21.4732 25.1054Z" fill="#61DAFB"/>
<path d="M21.4732 29.0521C32.6252 29.0521 41.6658 25.6003 41.6658 21.3422C41.6658 17.0842 32.6252 13.6323 21.4732 13.6323C10.3211 13.6323 1.28053 17.0842 1.28053 21.3422C1.28053 25.6003 10.3211 29.0521 21.4732 29.0521Z" stroke="#61DAFB" stroke-width="2.13423"/>
<path d="M14.7962 25.1972C20.3722 34.8552 27.8819 40.9586 31.5694 38.8296C35.257 36.7006 33.7261 27.1453 28.1501 17.4873C22.5741 7.82934 15.0644 1.72592 11.3768 3.85495C7.68923 5.98399 9.22012 15.5392 14.7962 25.1972Z" stroke="#61DAFB" stroke-width="2.13423"/>
<path d="M14.7962 17.4874C9.22013 27.1454 7.68924 36.7006 11.3768 38.8296C15.0644 40.9587 22.5741 34.8553 28.1501 25.1973C33.7262 15.5393 35.257 5.98404 31.5695 3.85501C27.8819 1.72597 20.3722 7.82939 14.7962 17.4874Z" stroke="#61DAFB" stroke-width="2.13423"/>
</svg>
