<svg width="42" height="42" viewBox="0 0 42 42" fill="none" xmlns="http://www.w3.org/2000/svg">
<g clip-path="url(#clip0_0_851)">
<path fill-rule="evenodd" clip-rule="evenodd" d="M15.0176 11.0229H4.09571C1.83366 11.0229 0 12.8566 0 15.1187C0 17.3807 1.83366 19.2144 4.09571 19.2144H15.0176C17.2796 19.2144 19.1133 17.3807 19.1133 15.1187C19.1133 12.8566 17.2796 11.0229 15.0176 11.0229Z" fill="#36C5F0"/>
<path fill-rule="evenodd" clip-rule="evenodd" d="M30.0352 15.1187V4.19678C30.0352 1.93474 28.2015 0.101074 25.9395 0.101074C23.6774 0.101074 21.8438 1.93474 21.8438 4.19678V15.1187C21.8438 17.3807 23.6774 19.2144 25.9395 19.2144C28.2015 19.2144 30.0352 17.3807 30.0352 15.1187Z" fill="#2EB67D"/>
<path fill-rule="evenodd" clip-rule="evenodd" d="M25.9395 30.1362H36.8614C39.1234 30.1362 40.9571 28.3026 40.9571 26.0405C40.9571 23.7785 39.1234 21.9448 36.8614 21.9448H25.9395C23.6774 21.9448 21.8438 23.7785 21.8438 26.0405C21.8438 28.3026 23.6774 30.1362 25.9395 30.1362Z" fill="#ECB22E"/>
<path fill-rule="evenodd" clip-rule="evenodd" d="M10.9219 26.0405V36.9624C10.9219 39.2245 12.7555 41.0581 15.0176 41.0581C17.2796 41.0581 19.1133 39.2245 19.1133 36.9624V26.0405C19.1133 23.7783 17.2796 21.9448 15.0176 21.9448C12.7555 21.9448 10.9219 23.7785 10.9219 26.0405Z" fill="#E01E5A"/>
<path fill-rule="evenodd" clip-rule="evenodd" d="M15.0176 0.101074C12.7555 0.101074 10.9219 1.93474 10.9219 4.19678C10.9219 6.45883 12.7555 8.29249 15.0176 8.29249H19.1133V4.19678C19.1133 1.93474 17.2796 0.101074 15.0176 0.101074Z" fill="#36C5F0"/>
<path fill-rule="evenodd" clip-rule="evenodd" d="M40.957 15.1187C40.957 12.8566 39.1234 11.0229 36.8613 11.0229C34.5993 11.0229 32.7656 12.8566 32.7656 15.1187V19.2144H36.8613C39.1234 19.2144 40.957 17.3807 40.957 15.1187Z" fill="#2EB67D"/>
<path fill-rule="evenodd" clip-rule="evenodd" d="M25.9395 41.0584C28.2015 41.0584 30.0352 39.2247 30.0352 36.9627C30.0352 34.7006 28.2015 32.8669 25.9395 32.8669H21.8438V36.9627C21.8438 39.2247 23.6774 41.0584 25.9395 41.0584Z" fill="#ECB22E"/>
<path fill-rule="evenodd" clip-rule="evenodd" d="M0 26.0405C0 28.3026 1.83366 30.1362 4.09571 30.1362C6.35776 30.1362 8.19142 28.3026 8.19142 26.0405V21.9448H4.09571C1.83366 21.9448 0 23.7785 0 26.0405Z" fill="#E01E5A"/>
</g>
<defs>
<clipPath id="clip0_0_851">
<rect width="41.0582" height="41.0582" fill="white"/>
</clipPath>
</defs>
</svg>
